<svg data-v-0dd9719b="" version="1.0" xmlns="http://www.w3.org/2000/svg" xmlns:xlink="http://www.w3.org/1999/xlink" width="100%" height="100%" viewBox="0 0 340.000000 250.000000" preserveAspectRatio="xMidYMid meet" color-interpolation-filters="sRGB" style="margin: auto;"> <rect data-v-0dd9719b="" x="0" y="0" width="100%" height="100%" fill="#fef0da" fill-opacity="1" class="background"></rect> <rect data-v-0dd9719b="" x="0" y="0" width="100%" height="100%" fill="url(#watermark)" fill-opacity="1" class="watermarklayer"></rect> <g data-v-0dd9719b="" fill="#2f2a76" class="icon-text-wrapper icon-svg-group iconsvg" transform="translate(81.58499908447266,83.84219360351562)"><g class="iconsvg-imagesvg" transform="translate(58.415000915527344,0)"><g><rect fill="#2f2a76" fill-opacity="0" stroke-width="2" x="0" y="0" width="60" height="31.489616299025396" class="image-rect"></rect> <svg filter="url(#colors746591195)" x="0" y="0" width="60" height="31.489616299025396" filtersec="colorsf4454492569" class="image-svg-svg primary" style="overflow: visible;"><svg xmlns="http://www.w3.org/2000/svg" xmlns:xlink="http://www.w3.org/1999/xlink" version="1.1" x="0px" y="0px" viewBox="5 26.381999969482422 90.00099182128906 47.2349967956543" enable-background="new 0 0 100 100" xml:space="preserve"><g><path d="M49.999,28.675c0.375,0,0.681-0.304,0.681-0.68v0C50.68,28.37,50.375,28.674,49.999,28.675   c-0.375-0.001-0.68-0.305-0.68-0.681s0.305-0.68,0.68-0.68c-0.376,0-0.681,0.305-0.681,0.681S49.623,28.675,49.999,28.675z"></path><path d="M54.303,70.682h-8.607c-0.375,0-0.68,0.305-0.68,0.68v0.001c0.001-0.374,0.305-0.679,0.68-0.679h8.607   c0.375,0,0.677,0.305,0.68,0.679v-0.001C54.982,70.986,54.678,70.682,54.303,70.682z"></path><path d="M86.627,69.107c0.109-0.226,0.176-0.478,0.176-0.746V28.107c0-0.953-0.771-1.725-1.725-1.725H14.919   c-0.953,0-1.725,0.771-1.725,1.725v40.254c0,0.271,0.065,0.521,0.176,0.746H5v2.785c0,0.949,0.773,1.725,1.727,1.725h86.546   c0.953,0,1.728-0.773,1.728-1.725v-2.785H86.627z M49.999,27.314c0.375,0,0.681,0.305,0.681,0.68v0v0   c0,0.376-0.306,0.68-0.681,0.68c-0.376,0-0.681-0.304-0.681-0.68S49.623,27.314,49.999,27.314z M16.143,29.709h67.712v36.568   H16.143V29.709z M54.982,71.363c0,0.378-0.305,0.683-0.68,0.683h-8.607c-0.375,0-0.68-0.305-0.68-0.683v-0.001v-0.001   c0-0.375,0.305-0.68,0.68-0.68h8.607c0.375,0,0.68,0.305,0.68,0.68V71.363L54.982,71.363z"></path><polygon points="31.736,50.861 44.194,56.648 44.194,53.898 34.772,49.771 34.772,49.719 44.194,45.592 44.194,42.84    31.736,48.628  "></polygon><polygon points="46.119,57.688 48.74,57.688 54.295,38.87 51.673,38.87  "></polygon><polygon points="55.801,45.592 65.432,49.719 65.432,49.771 55.801,53.898 55.801,56.648 68.26,50.939 68.26,48.551 55.801,42.84     "></polygon></g></svg></svg> <defs><filter id="colors746591195"><feColorMatrix type="matrix" values="0 0 0 0 0.953125  0 0 0 0 0.25  0 0 0 0 0.05078125  0 0 0 1 0" class="icon-fecolormatrix"></feColorMatrix></filter> <filter id="colorsf4454492569"><feColorMatrix type="matrix" values="0 0 0 0 0.99609375  0 0 0 0 0.99609375  0 0 0 0 0.99609375  0 0 0 1 0" class="icon-fecolormatrix"></feColorMatrix></filter> <filter id="colorsb1199212668"><feColorMatrix type="matrix" values="0 0 0 0 0  0 0 0 0 0  0 0 0 0 0  0 0 0 1 0" class="icon-fecolormatrix"></feColorMatrix></filter></defs></g></g> <g transform="translate(0,38.48961639404297)"><g data-gra="path-name" fill-rule="" class="tp-name iconsvg-namesvg" transform="translate(0,0)"><g transform="scale(1)"><g><path d="M15.56-7.66C15.56-3.45 12.8-1.13 9.06-1.13 5.31-1.13 2.5-3.8 2.5-7.66L1.05-7.66C1.05-2.93 4.44 0.32 9.06 0.32 13.67 0.32 17.1-2.67 17.1-7.66L17.1-20.32 7.78-20.32 7.78-18.96 15.56-18.96ZM33.07-14.34L33.07-11.21C31.88-13.44 29.53-14.52 27.2-14.52 23.2-14.52 19.92-11.55 19.92-7.17 19.92-2.79 23.2 0.23 27.2 0.23 29.53 0.23 31.67-0.81 33.07-3.05L33.07 0 34.49 0C34.49-4.79 34.49-9.55 34.49-14.34ZM27.2-13.15C35.19-13.15 35.19-1.16 27.2-1.16 23.95-1.16 21.34-3.57 21.34-7.17 21.34-10.77 23.95-13.15 27.2-13.15ZM38.35-14.34L38.35 0 39.77 0 39.77-7.98C39.77-10.95 41.84-13.18 44.8-13.21 47.9-13.24 49.91-11.5 49.91-8.25L49.91 0 51.33 0 51.33-8.27C51.33-12.25 48.69-14.6 44.85-14.6 42.85-14.57 40.85-13.76 39.75-11.79L39.75-14.34ZM65.18-13.3C64.07-14.08 62.56-14.6 61.11-14.6 57.4-14.6 54.38-12.08 54.38-7.61 54.38-3.77 56.96-0.67 61.11-0.67 63.78-0.67 66.54 0.55 66.54 3.63 66.54 6.68 63.99 7.95 61.11 7.95 58.24 7.95 55.74 6.56 55.74 3.63L54.32 3.63C54.32 7.26 57.31 9.35 61.11 9.35 64.92 9.35 67.94 7.49 67.94 3.63 67.94 1.16 66.54-0.61 64.02-1.51 66.4-2.58 67.88-5.11 67.88-7.61 67.88-9.93 67.12-11.38 66.11-12.48L67.5-14.11 66.57-14.92ZM61.11-13.18C64.07-13.18 66.48-11.24 66.48-7.61 66.48-4.65 64.07-2.09 61.11-2.09 57.83-2.09 55.8-4.65 55.8-7.61 55.8-11.35 58.18-13.18 61.11-13.18ZM77.25 0L78.82 0 78.82-8.13 86.78-20.29 86.78-20.32 84.95-20.32 78.04-9.64 71.16-20.32 69.33-20.32 69.33-20.29 77.25-8.13ZM92.64 0.2C96.68 0.2 99.93-2.58 99.93-7.14 99.93-11.7 96.68-14.6 92.64-14.6 88.61-14.6 85.35-11.7 85.35-7.14 85.35-2.58 88.61 0.2 92.64 0.2ZM92.64-1.19C89.39-1.19 86.75-3.43 86.75-7.14 86.75-10.86 89.39-13.27 92.64-13.27 95.89-13.27 98.54-10.86 98.54-7.14 98.54-3.43 95.89-1.19 92.64-1.19ZM103.21-14.34L103.21 0 104.63 0 104.63-7.98C104.63-10.95 106.69-13.18 109.65-13.21 112.76-13.24 114.76-11.5 114.76-8.25L114.76 0 116.19 0 116.19-8.27C116.19-12.25 113.55-14.6 109.71-14.6 107.71-14.57 105.71-13.76 104.6-11.79L104.6-14.34ZM130.04-13.3C128.93-14.08 127.42-14.6 125.97-14.6 122.25-14.6 119.24-12.08 119.24-7.61 119.24-3.77 121.82-0.67 125.97-0.67 128.64-0.67 131.4 0.55 131.4 3.63 131.4 6.68 128.85 7.95 125.97 7.95 123.1 7.95 120.6 6.56 120.6 3.63L119.18 3.63C119.18 7.26 122.17 9.35 125.97 9.35 129.77 9.35 132.79 7.49 132.79 3.63 132.79 1.16 131.4-0.61 128.87-1.51 131.25-2.58 132.74-5.11 132.74-7.61 132.74-9.93 131.98-11.38 130.96-12.48L132.36-14.11 131.43-14.92ZM125.97-13.18C128.93-13.18 131.34-11.24 131.34-7.61 131.34-4.65 128.93-2.09 125.97-2.09 122.69-2.09 120.66-4.65 120.66-7.61 120.66-11.35 123.04-13.18 125.97-13.18ZM153.67 0L155.21 0 155.21-20.32 153.29-20.32 145.6-8.48 137.82-20.32C137.06-20.32 136.71-20.32 135.96-20.32L135.96 0 137.53 0 137.53-18.06 145.36-6.15 145.89-6.15 153.67-18.06ZM160.84-14.4L160.84 0 159.42 0 159.42-14.4ZM159.01-19.02C159.01-17.51 161.3-17.51 161.3-19.02 161.3-20.53 159.01-20.53 159.01-19.02ZM164.9-14.34L164.9 0 166.33 0 166.33-7.98C166.33-10.95 168.39-13.18 171.35-13.21 174.45-13.24 176.46-11.5 176.46-8.25L176.46 0 177.88 0 177.88-8.27C177.88-12.25 175.24-14.6 171.41-14.6 169.4-14.57 167.4-13.76 166.3-11.79L166.3-14.34Z" transform="translate(-1.0499999523162842, 20.31999969482422)"></path></g> <!----> <!----> <!----> <!----> <!----> <!----> <!----></g></g> <g data-gra="path-slogan" fill-rule="" class="tp-slogan iconsvg-slogansvg" fill="#2f2a76" transform="translate(59.22500228881836,35.670000076293945)"><!----> <!----> <g transform="scale(1, 1)"><g transform="scale(1)"><path d="M1.08-7.87L1.08 0L3.10 0C3.69 0 4.21-0.09 4.67-0.27C5.12-0.45 5.51-0.71 5.82-1.05C6.13-1.39 6.37-1.81 6.53-2.30C6.69-2.79 6.77-3.35 6.77-3.97C6.77-5.23 6.45-6.19 5.82-6.86C5.19-7.54 4.26-7.87 3.05-7.87ZM2.98-0.82L2.08-0.82L2.08-7.06L2.98-7.06C3.90-7.06 4.59-6.79 5.05-6.26C5.51-5.74 5.74-4.97 5.74-3.97C5.74-2.97 5.51-2.20 5.05-1.64C4.59-1.09 3.90-0.82 2.98-0.82ZM8.46-7.87L8.46 0L13.12 0L13.12-0.85L9.46-0.85L9.46-3.71L12.44-3.71L12.44-4.56L9.46-4.56L9.46-7.03L13.00-7.03L13.00-7.87ZM13.70-7.87L16.22 0L17.39 0L19.88-7.87L18.86-7.87L17.60-3.62C17.47-3.15 17.34-2.72 17.23-2.32C17.12-1.92 16.99-1.48 16.85-1.02L16.80-1.02C16.65-1.48 16.52-1.92 16.41-2.32C16.30-2.72 16.18-3.15 16.03-3.62L14.77-7.87ZM20.96-7.87L20.96 0L25.62 0L25.62-0.85L21.96-0.85L21.96-3.71L24.95-3.71L24.95-4.56L21.96-4.56L21.96-7.03L25.50-7.03L25.50-7.87ZM27.29-7.87L27.29 0L31.73 0L31.73-0.85L28.28-0.85L28.28-7.87ZM35.71 0.14C36.21 0.14 36.66 0.05 37.07-0.14C37.49-0.34 37.84-0.61 38.14-0.97C38.44-1.32 38.67-1.75 38.84-2.26C39.00-2.77 39.08-3.34 39.08-3.97C39.08-4.60 39.00-5.16 38.84-5.66C38.67-6.16 38.44-6.58 38.14-6.93C37.84-7.28 37.49-7.55 37.07-7.73C36.66-7.92 36.21-8.02 35.71-8.02C35.22-8.02 34.76-7.92 34.35-7.74C33.94-7.56 33.58-7.29 33.29-6.94C32.99-6.59 32.76-6.17 32.60-5.67C32.43-5.17 32.35-4.60 32.35-3.97C32.35-3.34 32.43-2.77 32.60-2.26C32.76-1.75 32.99-1.32 33.29-0.97C33.58-0.61 33.94-0.34 34.35-0.14C34.76 0.05 35.22 0.14 35.71 0.14ZM35.71-0.73C35.36-0.73 35.04-0.81 34.76-0.96C34.47-1.11 34.23-1.33 34.03-1.61C33.82-1.90 33.66-2.24 33.55-2.63C33.44-3.03 33.38-3.48 33.38-3.97C33.38-4.46 33.44-4.90 33.55-5.29C33.66-5.68 33.82-6.02 34.03-6.29C34.23-6.56 34.47-6.77 34.76-6.92C35.04-7.07 35.36-7.14 35.71-7.14C36.06-7.14 36.38-7.07 36.67-6.92C36.95-6.77 37.19-6.56 37.40-6.29C37.60-6.02 37.76-5.68 37.87-5.29C37.98-4.90 38.04-4.46 38.04-3.97C38.04-3.48 37.98-3.03 37.87-2.63C37.76-2.24 37.60-1.90 37.40-1.61C37.19-1.33 36.95-1.11 36.67-0.96C36.38-0.81 36.06-0.73 35.71-0.73ZM40.78-7.87L40.78 0L41.77 0L41.77-3.12L43.19-3.12C43.62-3.12 44.01-3.17 44.37-3.27C44.73-3.37 45.03-3.52 45.29-3.72C45.54-3.92 45.74-4.17 45.88-4.48C46.02-4.78 46.09-5.14 46.09-5.56C46.09-5.99 46.02-6.35 45.88-6.65C45.74-6.94 45.55-7.18 45.29-7.36C45.04-7.54 44.74-7.67 44.38-7.75C44.02-7.83 43.62-7.87 43.19-7.87ZM43.07-3.94L41.77-3.94L41.77-7.07L43.07-7.07C43.75-7.07 44.26-6.96 44.59-6.74C44.93-6.52 45.10-6.12 45.10-5.56C45.10-5.00 44.93-4.59 44.60-4.33C44.27-4.07 43.76-3.94 43.07-3.94ZM47.69-7.87L47.69 0L52.34 0L52.34-0.85L48.68-0.85L48.68-3.71L51.67-3.71L51.67-4.56L48.68-4.56L48.68-7.03L52.22-7.03L52.22-7.87ZM55.01-4.14L55.01-7.07L56.33-7.07C56.94-7.07 57.42-6.96 57.74-6.76C58.07-6.55 58.24-6.18 58.24-5.66C58.24-5.15 58.07-4.77 57.74-4.52C57.42-4.27 56.94-4.14 56.33-4.14ZM58.33 0L59.46 0L57.47-3.43C58.00-3.57 58.43-3.82 58.75-4.19C59.07-4.56 59.23-5.05 59.23-5.66C59.23-6.07 59.16-6.42 59.03-6.70C58.89-6.98 58.70-7.20 58.46-7.38C58.21-7.56 57.92-7.68 57.58-7.76C57.24-7.83 56.87-7.87 56.47-7.87L54.01-7.87L54.01 0L55.01 0L55.01-3.32L56.44-3.32Z" transform="translate(-1.08, 8.016)"></path></g></g></g></g></g><defs v-gra="od"></defs></svg>